<?xml version="1.0" encoding="UTF-8" standalone="no"?>
<svg width="100px" height="100px" viewBox="0 0 100 100" version="1.1" xmlns="http://www.w3.org/2000/svg" xmlns:xlink="http://www.w3.org/1999/xlink">
    <!-- Generator: Sketch 3.7 (28169) - http://www.bohemiancoding.com/sketch -->
    <title>Clock Icon</title>
    <desc>Created with Sketch.</desc>
    <defs></defs>
    <g id="Symbols" stroke="none" stroke-width="1" fill="none" fill-rule="evenodd">
        <g id="Clock-Icon">
            <path d="M45,57 L70.3395285,83.414704 C70.3395285,83.414704 79.0412381,78.026366 81.9419228,74.3463929 C84.6742839,70.8799646 87.2386658,61.9754999 87.2386658,61.9754999 L75,50 L45,57 Z" id="Shadow" fill="#D8D8D8"></path>
            <path d="M50,100 C77.6142375,100 100,77.6142375 100,50 C100,22.3857625 77.6142375,0 50,0 C22.3857625,0 0,22.3857625 0,50 C0,77.6142375 22.3857625,100 50,100 L50,100 Z M50.5,88 C71.2106781,88 88,71.2106781 88,50.5 C88,29.7893219 71.2106781,13 50.5,13 C29.7893219,13 13,29.7893219 13,50.5 C13,71.2106781 29.7893219,88 50.5,88 L50.5,88 Z" id="Outline" fill="#4A4A4A"></path>
            <rect id="Minutes-Hand" fill="#000000" x="45" y="23" width="7" height="34"></rect>
            <rect id="Hours-Hand" fill="#000000" x="45" y="50" width="30" height="7"></rect>
        </g>
    </g>
</svg>