<?xml version="1.0" encoding="UTF-8" standalone="no"?>
<svg width="100px" height="100px" viewBox="0 0 100 100" version="1.1" xmlns="http://www.w3.org/2000/svg" xmlns:xlink="http://www.w3.org/1999/xlink">
    <!-- Generator: Sketch 3.7 (28169) - http://www.bohemiancoding.com/sketch -->
    <title>Calendar Icon</title>
    <desc>Created with Sketch.</desc>
    <defs>
        <circle id="path-1" cx="50" cy="50" r="50"></circle>
        <mask id="mask-2" maskContentUnits="userSpaceOnUse" maskUnits="objectBoundingBox" x="0" y="0" width="100" height="100" fill="white">
            <use xlink:href="#path-1"></use>
        </mask>
    </defs>
    <g id="Symbols" stroke="none" stroke-width="1" fill="none" fill-rule="evenodd">
        <g id="Calendar-Icon">
            <use id="Oval-6" stroke="#4A4A4A" mask="url(#mask-2)" stroke-width="16" xlink:href="#path-1"></use>
            <path d="M20,30.9969413 C20,26.5803526 23.5735893,23 27.9985496,23 L72.0014504,23 C76.4189274,23 80,26.5849106 80,30.9969413 L80,69.0030587 C80,73.4196474 76.4264107,77 72.0014504,77 L27.9985496,77 C23.5810726,77 20,73.4150894 20,69.0030587 L20,30.9969413 Z M24,31.9993932 C24,29.2383046 26.234375,27 29.0095798,27 L70.9904202,27 C73.7571347,27 76,29.2342212 76,31.9993932 L76,68.0006068 C76,70.7616954 73.765625,73 70.9904202,73 L29.0095798,73 C26.2428653,73 24,70.7657788 24,68.0006068 L24,31.9993932 Z" id="Combined-Shape" fill="#000000" fill-rule="evenodd"></path>
            <rect id="Rectangle-10" fill="#000000" fill-rule="evenodd" x="58" y="15" width="8" height="20" rx="8"></rect>
            <rect id="Rectangle-10" fill="#000000" fill-rule="evenodd" x="34" y="15" width="8" height="20" rx="8"></rect>
            <rect id="Rectangle-12" fill="#000000" fill-rule="evenodd" x="23" y="39" width="54" height="4"></rect>
            <g id="Squares" stroke-width="1" fill-rule="evenodd" transform="translate(33.500000, 46.000000)" fill="#000000">
                <rect id="Rectangle-13" x="9" y="0" width="6" height="6" rx="2"></rect>
                <rect id="Rectangle-13" x="18" y="0" width="6" height="6" rx="2"></rect>
                <rect id="Rectangle-13" x="9" y="9" width="6" height="6" rx="2"></rect>
                <rect id="Rectangle-13" x="18" y="9" width="6" height="6" rx="2"></rect>
                <rect id="Rectangle-13" x="0" y="0" width="6" height="6" rx="2"></rect>
                <rect id="Rectangle-13" x="27" y="0" width="6" height="6" rx="2"></rect>
                <rect id="Rectangle-13" x="0" y="9" width="6" height="6" rx="2"></rect>
                <rect id="Rectangle-13" x="27" y="9" width="6" height="6" rx="2"></rect>
                <rect id="Rectangle-13" x="9" y="18" width="6" height="6" rx="2"></rect>
                <rect id="Rectangle-13" x="18" y="18" width="6" height="6" rx="2"></rect>
                <rect id="Rectangle-13" x="0" y="18" width="6" height="6" rx="2"></rect>
                <rect id="Rectangle-13" x="27" y="18" width="6" height="6" rx="2"></rect>
            </g>
        </g>
    </g>
</svg>